<?xml version="1.0" encoding="UTF-8"?>
<svg width="752pt" height="752pt" version="1.1" viewBox="0 0 752 752" xmlns="http://www.w3.org/2000/svg">
 <defs>
  <clipPath id="b">
   <path d="m139.21 139.21h465.79v391.79h-465.79z"/>
  </clipPath>
  <clipPath id="a">
   <path d="m139.21 494h465.79v103h-465.79z"/>
  </clipPath>
 </defs>
 <g>
  <g clip-path="url(#b)">
   <path d="m139.5 395.48 21.379 120.01c0.40625 2.3672 1.2773 4.6328 2.5625 6.6641 1.2812 2.0312 2.957 3.7891 4.9219 5.168 1.9688 1.3828 4.1875 2.3633 6.5352 2.8789 2.3438 0.51953 4.7695 0.56641 7.1367 0.14453 2.3633-0.42188 4.625-1.3086 6.6445-2.6055 2.0234-1.2969 3.7656-2.9844 5.1328-4.9648 1.3672-1.9727 2.3281-4.1992 2.832-6.5508 0.50391-2.3516 0.53516-4.7734 0.097656-7.1367l-18.289-102.69 193.28-41.531 193.29 41.531-18.289 102.69c-0.44141 2.3633-0.40625 4.7852 0.09375 7.1367 0.50391 2.3516 1.4648 4.5781 2.832 6.5508 1.3711 1.9805 3.1133 3.668 5.1328 4.9648 2.0234 1.2969 4.2812 2.1836 6.6484 2.6055 2.3633 0.42188 4.7891 0.375 7.1367-0.14453 2.3477-0.51562 4.5664-1.4961 6.5312-2.8789 1.9688-1.3789 3.6445-3.1367 4.9258-5.168 1.2852-2.0312 2.1562-4.2969 2.5625-6.6641l21.379-120.01c0.83203-4.6445-0.17578-9.4297-2.8008-13.348-2.6328-3.918-6.6758-6.6641-11.285-7.6602l-54.57-11.723-16.227-122.79c-1.2812-9.6094-5.9766-18.438-13.227-24.871-7.2461-6.4336-16.57-10.043-26.262-10.172h-46.992v-47.492c0-4.832-1.918-9.4648-5.3359-12.879-3.4141-3.418-8.0469-5.3359-12.879-5.3359h-85.352c-4.8281 0-9.4609 1.918-12.879 5.3359-3.4141 3.4141-5.3359 8.0469-5.3359 12.879v47.492h-46.992c-9.6445 0.19531-18.906 3.8086-26.133 10.195-7.2266 6.3906-11.945 15.141-13.32 24.688l-16.23 122.95-54.566 11.723c-4.6133 0.99609-8.6562 3.7422-11.285 7.6602-2.6289 3.918-3.6328 8.7031-2.8008 13.348zm207.76-219.84h48.918v29.277h-48.918zm-86.766 69.016c0.19531-0.80859 0.61328-1.5469 1.2031-2.1289 0.58984-0.58594 1.332-0.99219 2.1406-1.1797h215.77c0.80469 0.16797 1.5469 0.55859 2.1367 1.1289 0.58984 0.57031 1.0078 1.293 1.207 2.0898l14.527 110.05-121.89-26.184c-2.5352-0.53516-5.1523-0.53516-7.6875 0l-121.89 26.184z"/>
  </g>
  <g clip-path="url(#a)">
   <path d="m604.25 578.76c0-4.8281-1.9219-9.4609-5.3359-12.879-3.4141-3.4141-8.0508-5.3359-12.879-5.3359-18.816-0.027344-37.25-5.3047-53.227-15.242s-28.863-24.137-37.207-41c-1.4883-3.0508-3.7969-5.625-6.6719-7.4297-2.8711-1.8086-6.1914-2.7773-9.5859-2.8008h-0.10547c-3.3828 0-6.6992 0.94141-9.5781 2.7227-2.8789 1.7773-5.2031 4.3203-6.7188 7.3477-8.5 16.863-21.488 31.051-37.535 41-16.051 9.9531-34.531 15.285-53.414 15.402-18.891 0.019531-37.41-5.2344-53.477-15.172-16.066-9.9336-29.035-24.16-37.453-41.07-1.4883-3.0508-3.7969-5.625-6.6719-7.4297-2.8711-1.8086-6.1914-2.7773-9.5859-2.8008h-0.10938c-3.3828 0-6.6992 0.94531-9.5742 2.7227-2.8789 1.7773-5.2031 4.3242-6.7188 7.3477-8.5 16.867-21.496 31.055-37.551 41.008-16.051 9.9531-34.543 15.285-53.43 15.395-4.832 0-9.4648 1.9219-12.879 5.3359-3.418 3.418-5.3359 8.0508-5.3359 12.879 0 4.832 1.918 9.4648 5.3359 12.879 3.4141 3.418 8.0469 5.3359 12.879 5.3359 20.531-0.11328 40.785-4.7617 59.309-13.617 18.523-8.8516 34.863-21.691 47.844-37.598 12.934 15.988 29.277 28.887 47.836 37.746 18.559 8.8594 38.859 13.457 59.426 13.457 20.562 0 40.867-4.5977 59.426-13.457 18.559-8.8594 34.902-21.758 47.836-37.746 12.906 15.938 29.199 28.797 47.695 37.652 18.5 8.8555 38.734 13.484 59.242 13.543 4.8242 0 9.457-1.918 12.871-5.3281 3.4141-3.4141 5.3359-8.0391 5.3438-12.867z"/>
  </g>
 </g>
</svg>
